<svg width="30" height="30" viewBox="0 0 30 30" fill="none" xmlns="http://www.w3.org/2000/svg">
<path d="M16 19.9219C15.9011 19.9219 15.8044 19.9539 15.7222 20.014C15.64 20.0741 15.5759 20.1595 15.5381 20.2595C15.5002 20.3594 15.4903 20.4694 15.5096 20.5754C15.5289 20.6815 15.5765 20.779 15.6464 20.8554C15.7164 20.9319 15.8055 20.984 15.9025 21.0051C15.9994 21.0262 16.1 21.0154 16.1913 20.974C16.2827 20.9326 16.3608 20.8625 16.4157 20.7726C16.4707 20.6826 16.5 20.5769 16.5 20.4688C16.5 20.3237 16.4473 20.1846 16.3536 20.0821C16.2598 19.9795 16.1326 19.9219 16 19.9219ZM25 10.0781C24.9988 9.06323 24.6297 8.09027 23.9736 7.37263C23.3175 6.65499 22.4279 6.25127 21.5 6.25H14.4425C13.6381 6.25268 12.8588 6.5573 12.2351 7.11292C11.6114 7.66854 11.1809 8.4415 11.0156 9.30259L8.90344 20.4688H7.5C6.83696 20.4688 6.20107 20.7568 5.73223 21.2696C5.26339 21.7824 5 22.4779 5 23.2031C5 23.3482 5.05268 23.4873 5.14645 23.5898C5.24021 23.6924 5.36739 23.75 5.5 23.75H11.5C11.6326 23.75 11.7598 23.6924 11.8536 23.5898C11.9473 23.4873 12 23.3482 12 23.2031V21.0156C12 20.8706 11.9473 20.7315 11.8536 20.6289C11.7598 20.5264 11.6326 20.4688 11.5 20.4688H9.92406L11.9941 9.52373C12.1124 8.90875 12.4201 8.35681 12.8657 7.96005C13.3113 7.5633 13.8679 7.34576 14.4425 7.34375H21.5C22.163 7.34375 22.7989 7.63184 23.2678 8.14463C23.7366 8.65742 24 9.35292 24 10.0781C24 10.8033 23.7366 11.4988 23.2678 12.0116C22.7989 12.5244 22.163 12.8125 21.5 12.8125H20.4631C19.9023 12.1243 19.2147 11.5737 18.4455 11.1966C17.6763 10.8196 16.8429 10.6248 16 10.625C15.7348 10.625 15.4804 10.7402 15.2929 10.9454C15.1054 11.1505 15 11.4287 15 11.7188V17.3892C13.8384 17.842 13 19.0448 13 20.4688C13.0008 21.3387 13.3172 22.1728 13.8796 22.7879C14.442 23.4031 15.2046 23.7491 16 23.75H20C20.5304 23.75 21.0391 23.5195 21.4142 23.1093C21.7893 22.6991 22 22.1427 22 21.5625V17.1875C22.0001 16.0347 21.7208 14.9025 21.1906 13.9062H21.5C22.4279 13.905 23.3175 13.5013 23.9736 12.7836C24.6297 12.066 24.9988 11.093 25 10.0781ZM11 21.5625V22.6562H6.08563C6.18943 22.3366 6.38107 22.0599 6.63428 21.8641C6.8875 21.6683 7.18989 21.563 7.5 21.5625H11ZM16 22.6562C15.6044 22.6562 15.2178 22.528 14.8889 22.2876C14.56 22.0472 14.3036 21.7056 14.1522 21.3059C14.0009 20.9062 13.9613 20.4663 14.0384 20.042C14.1156 19.6177 14.3061 19.2279 14.5858 18.922C14.8655 18.616 15.2219 18.4077 15.6098 18.3233C15.9978 18.2389 16.3999 18.2822 16.7654 18.4478C17.1308 18.6133 17.4432 18.8937 17.6629 19.2534C17.8827 19.6132 18 20.0361 18 20.4688C17.9994 21.0487 17.7885 21.6047 17.4136 22.0148C17.0386 22.4249 16.5303 22.6556 16 22.6562ZM21 21.5625C21 21.8526 20.8946 22.1308 20.7071 22.3359C20.5196 22.541 20.2652 22.6562 20 22.6562H18.2188C18.6098 22.1875 18.8675 21.6043 18.9605 20.978C19.0535 20.3517 18.9777 19.7093 18.7424 19.1293C18.5071 18.5493 18.1224 18.0568 17.6354 17.712C17.1484 17.3671 16.5801 17.1849 16 17.1875V11.7188C18.7569 11.7188 21 14.1722 21 17.1875V21.5625Z" fill="#080A1A"/>
</svg>
