<svg width="14" height="14" viewBox="0 0 14 14" fill="none" xmlns="http://www.w3.org/2000/svg">
<path d="M12.7866 9.77101C12.5941 11.3227 11.3225 12.5943 9.77079 12.7868C8.83163 12.9035 7.95663 12.6468 7.27413 12.1452C6.88329 11.8593 6.97663 11.2527 7.44329 11.1127C9.19913 10.5818 10.5816 9.19351 11.1183 7.43768C11.2583 6.97684 11.865 6.88351 12.1508 7.26851C12.6466 7.95684 12.9033 8.83184 12.7866 9.77101Z" fill="white"/>
<path d="M5.82746 1.16699C3.25496 1.16699 1.16663 3.25533 1.16663 5.82783C1.16663 8.40032 3.25496 10.4887 5.82746 10.4887C8.39996 10.4887 10.4883 8.40032 10.4883 5.82783C10.4825 3.25533 8.39996 1.16699 5.82746 1.16699ZM5.27913 5.17449L6.68496 5.66449C7.19246 5.84533 7.43746 6.20116 7.43746 6.74949C7.43746 7.37949 6.93579 7.89866 6.32329 7.89866H6.27079V7.92783C6.27079 8.16699 6.07246 8.36533 5.83329 8.36533C5.59413 8.36533 5.39579 8.16699 5.39579 7.92783V7.89283C4.74829 7.86366 4.22913 7.32116 4.22913 6.64449C4.22913 6.40533 4.42746 6.20699 4.66663 6.20699C4.90579 6.20699 5.10413 6.40533 5.10413 6.64449C5.10413 6.85449 5.25579 7.02366 5.44246 7.02366H6.31746C6.45163 7.02366 6.55663 6.90116 6.55663 6.74949C6.55663 6.54533 6.52163 6.53366 6.38746 6.48699L4.98163 5.99699C4.47996 5.82199 4.22913 5.46616 4.22913 4.91199C4.22913 4.28199 4.73079 3.76283 5.34329 3.76283H5.39579V3.73949C5.39579 3.50033 5.59413 3.30199 5.83329 3.30199C6.07246 3.30199 6.27079 3.50033 6.27079 3.73949V3.77449C6.91829 3.80366 7.43746 4.34616 7.43746 5.02283C7.43746 5.26199 7.23913 5.46033 6.99996 5.46033C6.76079 5.46033 6.56246 5.26199 6.56246 5.02283C6.56246 4.81283 6.41079 4.64366 6.22413 4.64366H5.34913C5.21496 4.64366 5.10996 4.76616 5.10996 4.91783C5.10413 5.11616 5.13913 5.12783 5.27913 5.17449Z" fill="white"/>
</svg>
